<?xml version="1.0" encoding="utf-8"?>
<!-- Generator: Adobe Illustrator 19.1.0, SVG Export Plug-In . SVG Version: 6.00 Build 0)  -->
<svg version="1.1" id="圖層_1" xmlns="http://www.w3.org/2000/svg" xmlns:xlink="http://www.w3.org/1999/xlink" x="0px" y="0px"
	 viewBox="0 0 60.1 60.1" style="enable-background:new 0 0 60.1 60.1;" xml:space="preserve">
<style type="text/css">
	.st0{fill:#FD6785;}
	.st1{fill:#B3B3B3;}
	.st2{fill:#999999;}
</style>
<g>
	<g>
		<path class="st2" d="M30.1,2c15.5,0,28.1,12.6,28.1,28.1S45.6,58.1,30.1,58.1C14.6,58.1,2,45.6,2,30.1S14.6,2,30.1,2 M30.1,0
			C13.5,0,0,13.5,0,30.1c0,16.6,13.5,30.1,30.1,30.1s30.1-13.5,30.1-30.1C60.1,13.5,46.7,0,30.1,0L30.1,0z"/>
	</g>
	<g>
		<g>
			<g>
				<polygon class="st2" points="30.5,43.7 28.4,41.6 39.9,30.1 28.4,18.6 30.5,16.4 44.2,30.1 				"/>
			</g>
			<rect x="16" y="28.6" class="st2" width="24.7" height="2.9"/>
		</g>
	</g>
</g>
</svg>
