<?xml version="1.0" encoding="utf-8"?>
<!-- Generator: Adobe Illustrator 19.1.0, SVG Export Plug-In . SVG Version: 6.00 Build 0)  -->
<svg version="1.1" id="圖層_1" xmlns="http://www.w3.org/2000/svg" xmlns:xlink="http://www.w3.org/1999/xlink" x="0px" y="0px"
	 viewBox="0 0 41 41" style="enable-background:new 0 0 41 41;" xml:space="preserve">
<style type="text/css">
	.st0{fill:#FD6785;}
	.st1{fill:#B3B3B3;}
	.st2{fill:#999999;}
	.st3{opacity:0.59;fill:#13C9BF;}
	.st4{fill:#FFFFFF;}
	.st5{fill:none;stroke:#FFFFFF;stroke-linecap:round;stroke-linejoin:round;stroke-miterlimit:10;}
	.st6{fill:#FF931E;}
	.st7{fill:#7AC943;}
	.st8{fill:#FF7BAC;}
	.st9{fill:#13C9BF;}
</style>
<g>
	<path class="st5" d="M20.5,40.5c11,0,20-9,20-20c0-11-9-20-20-20c-11,0-20,9-20,20C0.5,31.5,9.5,40.5,20.5,40.5"/>
	<path class="st4" d="M30.5,15.3c-0.7,0.3-1.5,0.5-2.4,0.6c0.8-0.5,1.5-1.3,1.8-2.3c-0.8,0.5-1.7,0.8-2.6,1c-0.7-0.8-1.8-1.3-3-1.3
		c-2.3,0-4.1,1.8-4.1,4.1c0,0.3,0,0.6,0.1,0.9c-3.4-0.2-6.4-1.8-8.5-4.3c-0.4,0.6-0.6,1.3-0.6,2.1c0,1.4,0.7,2.7,1.8,3.4
		c-0.7,0-1.3-0.2-1.9-0.5v0.1c0,2,1.4,3.7,3.3,4c-0.3,0.1-0.7,0.1-1.1,0.1c-0.3,0-0.5,0-0.8-0.1c0.5,1.6,2,2.8,3.8,2.9
		c-1.4,1.1-3.2,1.8-5.1,1.8c-0.3,0-0.7,0-1-0.1c1.8,1.2,4,1.8,6.3,1.8c7.6,0,11.7-6.3,11.7-11.7c0-0.2,0-0.4,0-0.5
		C29.3,16.8,30,16.1,30.5,15.3"/>
</g>
</svg>
