<?xml version="1.0" encoding="utf-8"?>
<!-- Generator: Adobe Illustrator 19.1.0, SVG Export Plug-In . SVG Version: 6.00 Build 0)  -->
<svg version="1.1" id="圖層_1" xmlns="http://www.w3.org/2000/svg" xmlns:xlink="http://www.w3.org/1999/xlink" x="0px" y="0px"
	 viewBox="0 0 41 41" style="enable-background:new 0 0 41 41;" xml:space="preserve">
<style type="text/css">
	.st0{fill:#FD6785;}
	.st1{fill:#B3B3B3;}
	.st2{fill:#999999;}
	.st3{opacity:0.59;fill:#13C9BF;}
	.st4{fill:#FFFFFF;}
	.st5{fill:none;stroke:#FFFFFF;stroke-linecap:round;stroke-linejoin:round;stroke-miterlimit:10;}
	.st6{fill:#FF931E;}
	.st7{fill:#7AC943;}
	.st8{fill:#FF7BAC;}
	.st9{fill:#13C9BF;}
</style>
<g>
	<path class="st5" d="M20.5,40.5c11,0,20-9,20-20c0-11-9-20-20-20c-11,0-20,9-20,20C0.5,31.5,9.5,40.5,20.5,40.5"/>
	<path class="st4" d="M15.7,17.1h2.1v-2c0-0.9,0-2.3,0.7-3.1c0.7-0.9,1.6-1.5,3.2-1.5c2.6,0,3.7,0.4,3.7,0.4l-0.5,3.1
		c0,0-0.9-0.2-1.7-0.2c-0.8,0-1.5,0.3-1.5,1.1v2.3h3.3l-0.2,3h-3.1v10.4h-3.9V20.1h-2.1V17.1z"/>
</g>
</svg>
