<?xml version="1.0" encoding="utf-8"?>
<!-- Generator: Adobe Illustrator 19.1.0, SVG Export Plug-In . SVG Version: 6.00 Build 0)  -->
<svg version="1.1" id="圖層_1" xmlns="http://www.w3.org/2000/svg" xmlns:xlink="http://www.w3.org/1999/xlink" x="0px" y="0px"
	 viewBox="0 0 20.2 16.5" style="enable-background:new 0 0 20.2 16.5;" xml:space="preserve">
<style type="text/css">
	.st0{fill:#FD6785;}
	.st1{fill:#B3B3B3;}
	.st2{fill:#999999;}
</style>
<g>
	<path class="st0" d="M20.2,5.3c-0.1-1.4-0.7-2.8-1.7-3.8c-1-1-2.4-1.6-3.8-1.6c-2.1,0-3.6,1.6-4.4,2.5c0,0.1-0.1,0.1-0.1,0.2
		c0,0-0.1-0.1-0.1-0.1C9.3,1.7,7.8,0,5.5,0C4.1,0,2.7,0.6,1.7,1.6c-1,1-1.6,2.3-1.7,3.8c-0.1,1.4,0.3,2.6,1.2,4
		C2,10.5,4,12.4,5.5,13.7c1.6,1.3,3.6,2.8,4.6,2.8c0.9,0,3-1.5,4.6-2.8c1.5-1.3,3.6-3.1,4.4-4.4C19.6,8.4,20.3,7.2,20.2,5.3
		L20.2,5.3z M18,8.7"/>
</g>
</svg>
