<?xml version="1.0" encoding="utf-8"?>
<!-- Generator: Adobe Illustrator 19.1.0, SVG Export Plug-In . SVG Version: 6.00 Build 0)  -->
<svg version="1.1" id="圖層_1" xmlns="http://www.w3.org/2000/svg" xmlns:xlink="http://www.w3.org/1999/xlink" x="0px" y="0px"
	 viewBox="0 0 147.4 48" style="enable-background:new 0 0 147.4 48;" xml:space="preserve">
<style type="text/css">
	.st0{fill:#353434;}
	.st1{fill:#FFFFFF;}
</style>
<g>
	<g>
		<path class="st0" d="M103.2,15.9h3.7v24.7h-3.7V15.9z"/>
		<path class="st0" d="M116.9,40.6h-3.7V6h3.7V40.6z"/>
		<circle class="st0" cx="105.2" cy="10" r="2.7"/>
		<path class="st0" d="M133.9,14.9c-7.4,0-13.5,6-13.5,13.5c0,7.4,6,13.5,13.5,13.5c7.4,0,13.5-6,13.5-13.5
			C147.4,21,141.3,14.9,133.9,14.9z M133.9,38.6c-5.6,0-10.2-4.6-10.2-10.2c0-5.6,4.6-10.2,10.2-10.2c5.6,0,10.2,4.6,10.2,10.2
			C144.1,34,139.5,38.6,133.9,38.6z"/>
		<path class="st0" d="M95.4,31.5c-2.3,4-6.5,6.4-11.4,6.4c-7.3,0-13.1-5.9-13.1-13.2S76.7,11.2,84,11.2c4.9,0,9.1,2.2,11.4,6.2h4
			c-2.5-6-8.4-9.9-15.4-9.9c-9.2,0-16.7,7.6-16.7,16.8c0,9.2,7.5,16.9,16.7,16.9c6.8,0,12.7-3.8,15.2-9.8H95.4z"/>
	</g>
	<g>
		<g>
			<circle class="st0" cx="30.6" cy="3.1" r="2.8"/>
			<circle class="st0" cx="27.6" cy="23.6" r="5.3"/>
			<circle class="st0" cx="47.4" cy="21.4" r="2.8"/>
			<circle class="st0" cx="9.3" cy="9.3" r="9.3"/>
			<path class="st0" d="M28.2,25.1L7.6,8.1l23.9-6L28.2,25.1z M10.9,8.8L27,22.2l2.7-18.1L10.9,8.8z"/>
			
				<rect x="36.7" y="12.5" transform="matrix(0.1142 0.9935 -0.9935 0.1142 55.5489 -17.3153)" class="st0" width="1.5" height="19.9"/>
			<circle class="st0" cx="29.9" cy="37.7" r="2.8"/>
			
				<rect x="21.6" y="30" transform="matrix(0.1676 0.9859 -0.9859 0.1676 54.2968 -2.8098)" class="st0" width="14.4" height="1.5"/>
			<circle class="st0" cx="4.3" cy="45.2" r="2.8"/>
			
				<rect x="15.2" y="18.5" transform="matrix(0.6795 0.7337 -0.7337 0.6795 30.3662 -0.6664)" class="st0" width="1.5" height="31.8"/>
		</g>
	</g>
</g>
</svg>
