<?xml version="1.0" encoding="utf-8"?>
<!-- Generator: Adobe Illustrator 19.1.0, SVG Export Plug-In . SVG Version: 6.00 Build 0)  -->
<svg version="1.1" id="圖層_1" xmlns="http://www.w3.org/2000/svg" xmlns:xlink="http://www.w3.org/1999/xlink" x="0px" y="0px"
	 viewBox="0 0 236 236" style="enable-background:new 0 0 236 236;" xml:space="preserve">
<style type="text/css">
	.st0{fill:#FD6785;}
	.st1{fill:#B3B3B3;}
	.st2{fill:#999999;}
	.st3{opacity:0.59;fill:#13C9BF;}
	.st4{fill:#FFFFFF;}
	.st5{fill:none;stroke:#FFFFFF;stroke-linecap:round;stroke-linejoin:round;stroke-miterlimit:10;}
	.st6{fill:#FF931E;}
	.st7{fill:#7AC943;}
	.st8{fill:#FF7BAC;}
	.st9{fill:#13C9BF;}
</style>
<g>
	<path class="st6" d="M123.4,92.2c2.1,0.8,4.5,1,6.6,0.6c3-0.6,5.6-2.2,7.4-4.7c1.5-2.1,2.3-4.5,2.3-7.1c0-3.2-1.2-6.2-3.5-8.5
		c-2.3-2.3-5.3-3.5-8.5-3.5c-6.6,0-12,5.4-12,12c0,1.7,0.3,3.3,1,4.8C118.1,88.7,120.5,91,123.4,92.2z"/>
	<path class="st6" d="M96.4,109.5c-2.1,0-3.8,1.7-3.8,3.8c0,2.1,1.7,3.8,3.8,3.8c2.1,0,3.8-1.7,3.8-3.8
		C100.3,111.2,98.6,109.5,96.4,109.5z"/>
	<path class="st6" d="M153.6,98.8C153.6,98.8,153.6,98.8,153.6,98.8c-3.4-3.1-7.4-5.7-11.9-7.7c-0.5,0.7-1.1,1.4-1.8,2.1
		c-0.6,0.6-1.3,1.2-2,1.7c0.7,0.3,1.4,0.6,2.1,0.9c0.9,0.4,1.5,1.2,1.8,2.1c0.3,0.9,0.2,1.9-0.3,2.7c-0.9,1.5-2.8,2.1-4.4,1.4
		c-8.5-4-18.1-3.1-21.8-2.6c-1.7,0.3-3.4-0.9-3.8-2.6c0,0,0-0.1,0-0.1c-0.2-0.9,0-1.9,0.5-2.6c0.5-0.8,1.4-1.3,2.3-1.5
		c0.2,0,0.4-0.1,0.7-0.1c-1.3-1.4-2.3-3-3.1-4.7c-1,0.2-2,0.4-2.9,0.6c-0.3,0.1-0.5,0-0.7-0.1c-7.1-4.2-15.9-4-20.4-3.6
		c-0.7,0.1-1.4,0.5-1.7,1.1c-0.4,0.7-0.4,1.4-0.1,2.1l4.4,8.9c0.2,0.4,0.1,0.9-0.2,1.2c-4.8,4.2-8.3,9.2-10.3,14.7
		c-0.1,0.4-0.5,0.6-0.9,0.6c0,0,0,0,0,0h-5.3c0,0,0,0,0,0c-0.6,0-1.2,0.3-1.6,0.7c-0.4,0.4-0.7,1-0.7,1.6v11.9c0,0.8,0.5,1.6,1.3,2
		l6.9,3.6c0.2,0.1,0.4,0.3,0.5,0.5c2.8,7.6,8.8,14.3,16.6,19c0.3,0.2,0.7,0.5,0.7,0.9v10.6c0,1.5,0.8,2.2,2.3,2.2h9.7
		c1.1,0,2.1-0.4,2.5-1.4l2.4-5.4c0.2-0.4,0.6-0.6,1-0.5c5.2,0.6,10.8,0.5,16-0.5c0.1,0,0.1,0,0.2,0c0.2,0,0.4,0.1,0.5,0.2
		c0.2,0.2,0.3,0.5,0.3,0.8v4.6c0,1.5,1.4,2.2,3,2.2h9.6c1,0,2-0.3,2.4-1.2c1-1.9,2.1-3.7,3.1-5.7c4.1-7.6,8.4-15.4,11.6-23.4
		c2-4.8,2.8-10.1,2.3-15.3C163.7,112.4,159.9,104.6,153.6,98.8z M96.4,119.2c-3.2,0-5.8-2.6-5.8-5.8c0-3.2,2.6-5.8,5.8-5.8
		c3.2,0,5.8,2.6,5.8,5.8C102.3,116.5,99.7,119.2,96.4,119.2z"/>
	<path class="st6" d="M118,0C52.8,0,0,52.8,0,118s52.8,118,118,118c65.2,0,118-52.8,118-118S183.2,0,118,0z M127.8,67
		c3.7,0,7.3,1.5,9.9,4.1c2.6,2.6,4.1,6.2,4.1,9.9c0,3-0.9,5.9-2.7,8.3c-2.1,2.9-5.2,4.8-8.7,5.5c-0.8,0.2-1.7-0.1-2.6-0.1
		c-1.8,0-3.5-0.3-5.2-1.3c0,0,0,0,0,0c-3.4-1-6.2-3.7-7.7-7.1c-0.8-1.8-1.2-3.5-1.2-5.5C113.8,73.1,120.1,67,127.8,67z M164,137
		c-3.3,8.1-7.6,16-11.7,23.7c-1,1.9-2.1,3.6-3.1,5.5c-0.8,1.6-2.4,2.2-4.2,2.2h-9.6c-2.6,0-5-1.6-5-4.2v-3.4c-5,0.8-9.8,1-14.6,0.4
		l-2.1,4.6c-0.8,1.7-2.4,2.6-4.3,2.6h-9.7c-2.6,0-4.3-1.6-4.3-4.2v-10c-8-4.8-13.9-11.6-16.8-19.4l-6.7-3.4
		c-1.4-0.7-2.5-2.2-2.5-3.8v-11.9c0-1.1,0.5-2.3,1.3-3.1c0.8-0.8,1.9-1.3,3-1.3c0,0,0,0,0,0l4.6,0.1c2-5.3,5.5-10.3,10-14.4l-4-8.2
		c-0.6-1.3-0.6-2.7,0.1-3.9c0.7-1.2,1.9-2,3.3-2.1c4.7-0.5,13.7-0.6,21.3,3.6c1.2-0.3,2.3-0.5,3.5-0.7c0.5-0.1,0.9,0.2,1.1,0.6
		c0.1,0.2,0.1,0.4,0.2,0.6c0.8,1.8,1.9,3.4,3.3,4.8c0.3,0.3,0.6,0.5,0.9,0.8c0.3,0.3,0.4,0.7,0.3,1.1s-0.5,0.7-0.9,0.7
		c-0.9,0.1-1.8,0.2-2.7,0.3c-0.4,0.1-0.7,0.3-1,0.6c-0.2,0.3-0.3,0.7-0.2,1.1c0,0,0,0,0,0.1c0.2,0.7,0.9,1.1,1.6,1
		c3.9-0.6,14-1.5,23,2.7c0.7,0.3,1.5,0.1,1.8-0.6c0.2-0.4,0.2-0.8,0.1-1.1c-0.1-0.4-0.4-0.7-0.8-0.9c-1.2-0.6-2.5-1.1-3.8-1.5
		c-0.4-0.1-0.6-0.5-0.7-0.9c0-0.4,0.2-0.8,0.5-1c1.2-0.7,2.3-1.5,3.3-2.5c0.7-0.7,1.4-1.5,2-2.4c0.3-0.4,0.8-0.6,1.2-0.4
		c5,2.1,9.4,4.9,13.2,8.4c6.6,6.1,10.7,14.4,11.4,23.4C166.9,126.3,166.1,131.9,164,137z"/>
</g>
</svg>
