<?xml version="1.0" encoding="utf-8"?>
<!-- Generator: Adobe Illustrator 19.1.0, SVG Export Plug-In . SVG Version: 6.00 Build 0)  -->
<svg version="1.1" id="圖層_1" xmlns="http://www.w3.org/2000/svg" xmlns:xlink="http://www.w3.org/1999/xlink" x="0px" y="0px"
	 viewBox="0 0 26 27.3" style="enable-background:new 0 0 26 27.3;" xml:space="preserve">
<style type="text/css">
	.st0{fill:#FD6785;}
	.st1{fill:#B3B3B3;}
	.st2{fill:#999999;}
	.st3{opacity:0.59;fill:#13C9BF;}
	.st4{fill:#FFFFFF;}
	.st5{fill:none;stroke:#FFFFFF;stroke-linecap:round;stroke-linejoin:round;stroke-miterlimit:10;}
	.st6{fill:#FF931E;}
	.st7{fill:#7AC943;}
	.st8{fill:#FF7BAC;}
	.st9{fill:#13C9BF;}
</style>
<g>
	<g>
		<path class="st9" d="M11.6,23.2C5.2,23.2,0,18,0,11.6C0,5.2,5.2,0,11.6,0C18,0,23.2,5.2,23.2,11.6C23.2,18,18,23.2,11.6,23.2z
			 M11.6,1.6c-5.5,0-10,4.5-10,10c0,5.5,4.5,10,10,10c5.5,0,10-4.5,10-10C21.6,6.1,17.1,1.6,11.6,1.6z"/>
	</g>
	<g>
		<polygon class="st9" points="24.9,27.3 18,19.8 19.1,18.8 26,26.2 		"/>
	</g>
</g>
</svg>
