<?xml version="1.0" encoding="utf-8"?>
<!-- Generator: Adobe Illustrator 19.1.0, SVG Export Plug-In . SVG Version: 6.00 Build 0)  -->
<svg version="1.1" id="圖層_1" xmlns="http://www.w3.org/2000/svg" xmlns:xlink="http://www.w3.org/1999/xlink" x="0px" y="0px"
	 viewBox="0 0 236 236" style="enable-background:new 0 0 236 236;" xml:space="preserve">
<style type="text/css">
	.st0{fill:#FD6785;}
	.st1{fill:#B3B3B3;}
	.st2{fill:#999999;}
	.st3{opacity:0.59;fill:#13C9BF;}
	.st4{fill:#FFFFFF;}
	.st5{fill:none;stroke:#FFFFFF;stroke-linecap:round;stroke-linejoin:round;stroke-miterlimit:10;}
	.st6{fill:#FF931E;}
	.st7{fill:#7AC943;}
	.st8{fill:#FF7BAC;}
	.st9{fill:#13C9BF;}
</style>
<g>
	<path class="st7" d="M118,0C52.8,0,0,52.8,0,118s52.8,118,118,118s118-52.8,118-118S183.2,0,118,0z M154.2,140.2
		c0,0.2-0.3,0.3-0.4,0.5c-0.4,0.6-9.4,15.7-34,15.7c-19.5,0-33-14.9-33.6-15.5c-0.2-0.2-0.1-0.4-0.1-0.7v-16.2c0-0.3,0-0.7,0.2-0.9
		c0.3-0.2,0.5-0.2,0.9,0l30.8,15.5c1.8,0.9,3.9,0.8,5.7-0.2l28.5-16.7c0.3-0.2,0.9-0.2,1.2,0s0.7,0.5,0.7,0.9V140.2z M172.4,107.8
		L125,135.4c-2.3,1.4-5.2,1.5-7.6,0.3l-40.7-20.4c-0.4-0.2-0.6-0.6-0.6-1s0.3-0.7,0.7-0.9l34.3-11.9c0.3-0.1,0.7-0.1,1,0.2
		c1.6,1.3,4.8,2.1,8.4,2.1c3.9,0,8.5-1.1,8.5-4.1c0-0.3-0.1-0.7-0.2-1.1c-1.1,2.2-4.3,3.4-8.7,3.4c-4.5,0-6.7-1.7-7.8-3.1
		c-0.3-0.4-0.6-0.9-0.7-1.3c-0.2,0.3-0.3,0.6-0.4,0.9c-0.1,0.3-0.3,0.6-0.7,0.7L74,112l-0.1,22.6c2.5,1.2,4.2,3.8,4.2,6.6
		c0,1.7-0.6,3.4-1.7,4.7c1.2,4.2,2.5,11.7-0.9,17.6c-1.1,2-3,3.4-5.2,3.9c-0.6,0.1-1.2,0.2-1.8,0.2c-1.6,0-3.2-0.5-4.6-1.5l-0.9-0.6
		c-2-1.4-3.2-3.6-3.3-6c-0.2-2.4,0.8-4.7,2.5-6.3c1.9-1.8,3.1-4,3.6-6.6c-1.5-1.4-2.4-3.3-2.4-5.4c0-2.8,1.7-5.4,4.2-6.6l0.1-23.8
		c-2.3-1.4-3.7-3.8-3.8-6.6c-0.1-2.9,1.4-5.7,4-7.1l47.4-27.6c2.3-1.4,5.2-1.4,7.6-0.2l49.1,24.6c2.6,1.3,4.3,4,4.4,6.9
		C176.4,103.6,174.9,106.3,172.4,107.8z"/>
	<path class="st7" d="M171,95.5L121.9,71c-0.8-0.4-1.8-0.6-2.7-0.6c-1,0-2.1,0.3-3,0.8L68.9,98.8c-1.9,1.1-3,3.1-3,5.4
		c0.1,2.2,1.3,4.2,3.3,5.1c0.3,0.2,0.6,0.5,0.6,0.9l-0.1,25.1c0,0.4-0.3,0.8-0.7,0.9c-2.1,0.7-3.5,2.7-3.5,5c0,1.7,0.7,3.2,2.1,4.2
		c0.3,0.2,0.4,0.6,0.4,0.9c-0.5,3.3-1.9,6.1-4.3,8.3c-1.3,1.2-2,3-1.9,4.8c0.1,1.8,1,3.4,2.5,4.5l0.9,0.6c1.4,1,3.1,1.3,4.8,0.9
		c1.7-0.4,3.1-1.4,3.9-2.9c3.2-5.8,1.4-13.6,0.5-16.6c-0.1-0.4,0-0.7,0.3-1c1-1,1.6-2.3,1.6-3.8c0-2.2-1.4-4.2-3.5-5
		c-0.4-0.1-0.7-0.5-0.7-0.9l0.1-23.9c0-0.4,0.3-0.8,0.7-0.9l36.7-12.7c0.5-1.6,1.9-2.8,2.1-3c0.3-0.3,0.8-0.3,1.2-0.1
		c0.4,0.2,0.5,0.6,0.5,1c0,0.1,0,1.3,1.1,2.5c1.2,1.3,3.2,2,5.9,2c3.3,0,7.2-0.9,7.2-3.4c0-0.4-0.1-0.9-0.3-1.4
		c-0.2-0.5,0-1,0.4-1.2c0.4-0.2,1-0.1,1.3,0.2c1.4,1.8,2.3,3.8,2.3,5.4c0,3.8-4,6.1-10.5,6.1c-3.9,0-7.2-0.8-9.2-2.2l-31.5,10.9
		l38.5,19.3c1.8,0.9,3.9,0.8,5.7-0.2l47.4-27.6c1.9-1.1,3-3.2,3-5.4C174.2,98.5,173,96.5,171,95.5z"/>
	<path class="st7" d="M117.4,140.5l-29.2-14.8v14.2c2,2,14.8,14.6,32,14.6c21.8,0,30-12.6,32-14.4v-15.5l-27.1,15.8
		C122.8,141.6,119.8,141.7,117.4,140.5z"/>
</g>
</svg>
