<?xml version="1.0" encoding="utf-8"?>
<!-- Generator: Adobe Illustrator 19.1.0, SVG Export Plug-In . SVG Version: 6.00 Build 0)  -->
<svg version="1.1" id="圖層_1" xmlns="http://www.w3.org/2000/svg" xmlns:xlink="http://www.w3.org/1999/xlink" x="0px" y="0px"
	 viewBox="0 0 41 41" style="enable-background:new 0 0 41 41;" xml:space="preserve">
<style type="text/css">
	.st0{fill:#FD6785;}
	.st1{fill:#B3B3B3;}
	.st2{fill:#999999;}
	.st3{opacity:0.59;fill:#13C9BF;}
	.st4{fill:#FFFFFF;}
	.st5{fill:none;stroke:#FFFFFF;stroke-linecap:round;stroke-linejoin:round;stroke-miterlimit:10;}
	.st6{fill:#FF931E;}
	.st7{fill:#7AC943;}
	.st8{fill:#FF7BAC;}
	.st9{fill:#13C9BF;}
</style>
<g>
	<path class="st5" d="M20.5,40.5c11,0,20-9,20-20c0-11-9-20-20-20c-11,0-20,9-20,20C0.5,31.5,9.5,40.5,20.5,40.5"/>
	<path class="st4" d="M14.9,28.9H11V16.4h3.9V28.9z M12.9,14.8L12.9,14.8c-1.4,0-2.4-1-2.4-2.2c0-1.2,0.9-2.2,2.4-2.2
		c1.4,0,2.3,0.9,2.4,2.2C15.2,13.9,14.3,14.8,12.9,14.8z M30.5,28.9h-4.4v-6.5c0-1.7-0.7-2.8-2.2-2.8c-1.2,0-1.8,0.8-2.1,1.5
		c-0.1,0.3-0.1,0.6-0.1,1v6.8h-4.4c0,0,0.1-11.4,0-12.5h4.4v2c0.3-0.9,1.7-2.1,3.9-2.1c2.8,0,4.9,1.8,4.9,5.7V28.9z"/>
</g>
</svg>
