<?xml version="1.0" encoding="utf-8"?>
<!-- Generator: Adobe Illustrator 19.1.0, SVG Export Plug-In . SVG Version: 6.00 Build 0)  -->
<svg version="1.1" id="圖層_1" xmlns="http://www.w3.org/2000/svg" xmlns:xlink="http://www.w3.org/1999/xlink" x="0px" y="0px"
	 viewBox="0 0 236 236" style="enable-background:new 0 0 236 236;" xml:space="preserve">
<style type="text/css">
	.st0{fill:#FD6785;}
	.st1{fill:#B3B3B3;}
	.st2{fill:#999999;}
	.st3{opacity:0.59;fill:#13C9BF;}
	.st4{fill:#FFFFFF;}
	.st5{fill:none;stroke:#FFFFFF;stroke-linecap:round;stroke-linejoin:round;stroke-miterlimit:10;}
	.st6{fill:#FF931E;}
	.st7{fill:#7AC943;}
	.st8{fill:#FF7BAC;}
	.st9{fill:#13C9BF;}
</style>
<g>
	<path class="st8" d="M106.4,115.6c-2.1-0.9-4.1-2.1-5.9-3.4c-3.4-1.4-7-2.2-10.6-2.2c-6.9,0-13.8,2.6-19.1,7.9
		c-10.5,10.5-10.5,27.7,0,38.2s27.7,10.5,38.2,0s10.5-27.7,0-38.2C108.2,117.1,107.4,116.3,106.4,115.6z M80.5,137.9
		c-1.1,1.1-2.9,1.1-3.9,0c-1.1-1.1-1.1-2.9,0-3.9c1.1-1.1,2.9-1.1,3.9,0C81.5,135,81.5,136.8,80.5,137.9z M92.5,149.9
		c-1.1,1.1-2.9,1.1-3.9,0c-1.1-1.1-1.1-2.9,0-3.9c1.1-1.1,2.9-1.1,3.9,0C93.6,147,93.6,148.8,92.5,149.9z M103.4,142.7
		c-0.2,0.4-0.5,0.6-0.9,0.6c-0.1,0-0.3,0-0.4-0.1c-0.5-0.2-0.7-0.8-0.5-1.3c2.3-5.1,1.4-10.5-2.6-14.4c-4-4-9.4-4.9-14.5-2.5
		c-0.5,0.2-1.1,0-1.3-0.5c-0.2-0.5,0-1.1,0.5-1.3c5.9-2.7,12.1-1.6,16.7,2.9C105,130.6,106.1,136.8,103.4,142.7z"/>
	<path class="st8" d="M111.2,117.2c3.4,3.6,5.7,7.8,6.8,12.3c1.2-4.5,3.5-8.7,6.8-12.3c-2.2,0.5-4.5,0.8-6.8,0.8
		S113.4,117.7,111.2,117.2z"/>
	<path class="st8" d="M146,110c-3.6,0-7.2,0.7-10.6,2.2c-1.8,1.4-3.8,2.5-5.9,3.4c-0.9,0.7-1.8,1.5-2.7,2.3
		c-10.5,10.5-10.5,27.7,0,38.2s27.7,10.5,38.2,0s10.5-27.7,0-38.2C159.8,112.6,152.9,110,146,110z M146.9,150.5
		c-1.1,1.1-2.9,1.1-3.9,0c-1.1-1.1-1.1-2.9,0-3.9c1.1-1.1,2.9-1.1,3.9,0S147.9,149.4,146.9,150.5z M152.1,124.9
		c-0.2,0.5-0.8,0.7-1.3,0.5c-5.1-2.3-10.5-1.4-14.4,2.6c-4,4-4.9,9.4-2.5,14.5c0.2,0.5,0,1.1-0.5,1.3c-0.1,0.1-0.3,0.1-0.4,0.1
		c-0.4,0-0.7-0.2-0.9-0.6c-2.7-5.9-1.6-12.1,2.9-16.7c4.6-4.6,10.8-5.7,16.7-3C152.2,123.9,152.4,124.4,152.1,124.9z M158.9,138.5
		c-1.1,1.1-2.9,1.1-3.9,0c-1.1-1.1-1.1-2.9,0-3.9c1.1-1.1,2.9-1.1,3.9,0C160,135.6,160,137.4,158.9,138.5z"/>
	<path class="st8" d="M118,116c3.7,0,7.3-0.8,10.5-2.1c1.8-1.4,3.8-2.5,5.9-3.4c6.4-4.9,10.6-12.7,10.6-21.4c0-14.9-12.1-27-27-27
		S91,74.1,91,89c0,8.7,4.2,16.5,10.6,21.4c2.1,0.9,4,2,5.9,3.4C110.7,115.2,114.3,116,118,116z M126.9,78.9c1.5,0,2.8,1.2,2.8,2.8
		c0,1.5-1.2,2.8-2.8,2.8c-1.5,0-2.8-1.2-2.8-2.8C124.1,80.1,125.4,78.9,126.9,78.9z M109.9,78.9c1.5,0,2.8,1.2,2.8,2.8
		c0,1.5-1.2,2.8-2.8,2.8c-1.5,0-2.8-1.2-2.8-2.8C107.1,80.1,108.4,78.9,109.9,78.9z M105.1,93.2c0.5-0.2,1.1,0.1,1.3,0.6
		c1.9,5.2,6.4,8.4,12,8.4c5.6,0,10.1-3.1,12-8.4c0.2-0.5,0.8-0.8,1.3-0.6c0.5,0.2,0.8,0.8,0.6,1.3c-2.2,6.1-7.4,9.7-13.9,9.7
		c-6.4,0-11.6-3.6-13.9-9.7C104.3,93.9,104.6,93.4,105.1,93.2z"/>
	<path class="st8" d="M118,0C52.8,0,0,52.8,0,118s52.8,118,118,118c65.2,0,118-52.8,118-118S183.2,0,118,0z M166.5,157.5
		c-5.7,5.7-13.1,8.5-20.5,8.5s-14.9-2.8-20.5-8.5c-3.7-3.7-6.2-8.2-7.5-13c-1.3,4.8-3.8,9.3-7.5,13c-5.7,5.7-13.1,8.5-20.5,8.5
		s-14.9-2.8-20.5-8.5c-11.3-11.3-11.3-29.7,0-41c7.4-7.4,17.9-10,27.4-7.7C92,103.6,89,96.7,89,89c0-16,13-29,29-29s29,13,29,29
		c0,7.7-3,14.6-7.9,19.8c9.5-2.3,20,0.2,27.4,7.7C177.8,127.8,177.8,146.2,166.5,157.5z"/>
</g>
</svg>
