<?xml version="1.0" encoding="utf-8"?>
<!-- Generator: Adobe Illustrator 19.1.0, SVG Export Plug-In . SVG Version: 6.00 Build 0)  -->
<svg version="1.1" id="圖層_1" xmlns="http://www.w3.org/2000/svg" xmlns:xlink="http://www.w3.org/1999/xlink" x="0px" y="0px"
	 viewBox="0 0 41 41" style="enable-background:new 0 0 41 41;" xml:space="preserve">
<style type="text/css">
	.st0{fill:#FD6785;}
	.st1{fill:#B3B3B3;}
	.st2{fill:#999999;}
	.st3{opacity:0.59;fill:#13C9BF;}
	.st4{fill:#FFFFFF;}
	.st5{fill:none;stroke:#FFFFFF;stroke-linecap:round;stroke-linejoin:round;stroke-miterlimit:10;}
	.st6{fill:#FF931E;}
	.st7{fill:#7AC943;}
	.st8{fill:#FF7BAC;}
	.st9{fill:#13C9BF;}
</style>
<g>
	<path class="st5" d="M20.5,40.5c11,0,20-9,20-20c0-11-9-20-20-20c-11,0-20,9-20,20C0.5,31.5,9.5,40.5,20.5,40.5"/>
	<path class="st4" d="M17.2,29.5c-2.4,0-4.1-1.5-4.1-3.3c0-1.8,2.1-3.2,4.5-3.2c0.6,0,1.1,0.1,1.5,0.2c1.3,0.9,2.2,1.4,2.5,2.4
		c0,0.2,0.1,0.4,0.1,0.6C21.7,28,20.5,29.5,17.2,29.5 M17.8,18.9c-1.6,0-3.1-1.8-3.4-3.9c-0.3-2.1,0.8-3.7,2.4-3.7
		c1.6,0,3.1,1.7,3.4,3.8C20.5,17.2,19.4,18.9,17.8,18.9 M21.1,22c-0.6-0.4-1.6-1.4-1.6-1.9c0-0.7,0.2-1,1.2-1.8
		c1-0.8,1.7-1.9,1.7-3.2c0-1.6-0.7-3.1-2-3.6h2l1.4-1h-6.2c-2.8,0-5.4,2.1-5.4,4.5c0,2.5,1.9,4.5,4.7,4.5c0.2,0,0.4,0,0.6,0
		c-0.2,0.4-0.3,0.7-0.3,1.2c0,0.7,0.4,1.3,0.8,1.7c-0.4,0-0.7,0-1.1,0c-3.4,0-6.1,2.2-6.1,4.5c0,2.2,2.9,3.6,6.3,3.6
		c3.9,0,6.1-2.2,6.1-4.5C23.3,24.2,22.8,23.1,21.1,22 M30.1,19h-2.4v-2.4h-1.9V19h-2.4V21h2.4v2.4h1.9V21h2.4V19z"/>
</g>
</svg>
